<mxfile host="app.diagrams.net" modified="2021-11-10T17:26:26.879Z" agent="5.0 (Windows)" etag="y7G6BK-t7qL310BDFlvW" version="15.7.3" type="github">
  <diagram id="q83p12-QYbZFD7SSzN3h" name="Page-1">
    <mxGraphModel dx="1736" dy="920" grid="1" gridSize="10" guides="1" tooltips="1" connect="1" arrows="1" fold="1" page="1" pageScale="1" pageWidth="850" pageHeight="1100" math="0" shadow="0">
      <root>
        <mxCell id="0" />
        <mxCell id="1" parent="0" />
        <mxCell id="GGmMj6iyzSwKyWoEelDe-1" value="" style="rounded=0;whiteSpace=wrap;html=1;" vertex="1" parent="1">
          <mxGeometry x="130" y="60" width="630" height="960" as="geometry" />
        </mxCell>
        <mxCell id="HG3mwvZ6tWZtVFunkLje-3" value="" style="edgeStyle=orthogonalEdgeStyle;rounded=0;orthogonalLoop=1;jettySize=auto;html=1;fontSize=12;" parent="1" source="HG3mwvZ6tWZtVFunkLje-1" target="HG3mwvZ6tWZtVFunkLje-2" edge="1">
          <mxGeometry relative="1" as="geometry" />
        </mxCell>
        <mxCell id="HG3mwvZ6tWZtVFunkLje-1" value="&lt;font style=&quot;font-size: 12px&quot;&gt;Mulai&lt;/font&gt;" style="rounded=1;whiteSpace=wrap;html=1;arcSize=50;" parent="1" vertex="1">
          <mxGeometry x="175" y="80" width="100" height="50" as="geometry" />
        </mxCell>
        <mxCell id="HG3mwvZ6tWZtVFunkLje-6" value="" style="edgeStyle=orthogonalEdgeStyle;rounded=0;orthogonalLoop=1;jettySize=auto;html=1;fontSize=12;" parent="1" source="HG3mwvZ6tWZtVFunkLje-2" target="HG3mwvZ6tWZtVFunkLje-5" edge="1">
          <mxGeometry relative="1" as="geometry" />
        </mxCell>
        <mxCell id="HG3mwvZ6tWZtVFunkLje-2" value="&lt;div&gt;input :&lt;br&gt;&lt;/div&gt;&lt;div&gt;scan wajah&lt;br&gt;&lt;/div&gt;" style="shape=parallelogram;perimeter=parallelogramPerimeter;whiteSpace=wrap;html=1;fixedSize=1;fontSize=12;" parent="1" vertex="1">
          <mxGeometry x="150" y="170" width="150" height="60" as="geometry" />
        </mxCell>
        <mxCell id="HG3mwvZ6tWZtVFunkLje-8" value="" style="edgeStyle=orthogonalEdgeStyle;rounded=0;orthogonalLoop=1;jettySize=auto;html=1;fontSize=12;" parent="1" source="HG3mwvZ6tWZtVFunkLje-5" target="HG3mwvZ6tWZtVFunkLje-7" edge="1">
          <mxGeometry relative="1" as="geometry" />
        </mxCell>
        <mxCell id="HG3mwvZ6tWZtVFunkLje-5" value="proses data wajah" style="whiteSpace=wrap;html=1;" parent="1" vertex="1">
          <mxGeometry x="157.5" y="320" width="135" height="70" as="geometry" />
        </mxCell>
        <mxCell id="HG3mwvZ6tWZtVFunkLje-10" value="" style="edgeStyle=orthogonalEdgeStyle;rounded=0;orthogonalLoop=1;jettySize=auto;html=1;fontSize=12;" parent="1" source="HG3mwvZ6tWZtVFunkLje-7" target="HG3mwvZ6tWZtVFunkLje-9" edge="1">
          <mxGeometry relative="1" as="geometry" />
        </mxCell>
        <mxCell id="HG3mwvZ6tWZtVFunkLje-21" value="" style="edgeStyle=orthogonalEdgeStyle;rounded=0;orthogonalLoop=1;jettySize=auto;html=1;fontSize=12;" parent="1" source="HG3mwvZ6tWZtVFunkLje-7" target="HG3mwvZ6tWZtVFunkLje-20" edge="1">
          <mxGeometry relative="1" as="geometry" />
        </mxCell>
        <mxCell id="HG3mwvZ6tWZtVFunkLje-7" value="apakah memakai masker?" style="rhombus;whiteSpace=wrap;html=1;" parent="1" vertex="1">
          <mxGeometry x="163.75" y="450" width="122.5" height="120" as="geometry" />
        </mxCell>
        <mxCell id="HG3mwvZ6tWZtVFunkLje-18" value="" style="edgeStyle=orthogonalEdgeStyle;rounded=0;orthogonalLoop=1;jettySize=auto;html=1;fontSize=12;" parent="1" source="HG3mwvZ6tWZtVFunkLje-9" target="HG3mwvZ6tWZtVFunkLje-17" edge="1">
          <mxGeometry relative="1" as="geometry" />
        </mxCell>
        <mxCell id="HG3mwvZ6tWZtVFunkLje-9" value="&lt;div&gt;output :&lt;/div&gt;&lt;div&gt;lampu merah menyala&lt;br&gt;&lt;/div&gt;" style="shape=parallelogram;perimeter=parallelogramPerimeter;whiteSpace=wrap;html=1;fixedSize=1;" parent="1" vertex="1">
          <mxGeometry x="370" y="475" width="155" height="70" as="geometry" />
        </mxCell>
        <mxCell id="HG3mwvZ6tWZtVFunkLje-17" value="selesai" style="whiteSpace=wrap;html=1;rounded=1;arcSize=50;" parent="1" vertex="1">
          <mxGeometry x="622.5" y="690" width="120" height="60" as="geometry" />
        </mxCell>
        <mxCell id="HG3mwvZ6tWZtVFunkLje-19" value="tidak" style="text;html=1;align=center;verticalAlign=middle;resizable=0;points=[];autosize=1;strokeColor=none;fillColor=none;fontSize=12;" parent="1" vertex="1">
          <mxGeometry x="286.25" y="480" width="40" height="20" as="geometry" />
        </mxCell>
        <mxCell id="HG3mwvZ6tWZtVFunkLje-23" value="" style="edgeStyle=orthogonalEdgeStyle;rounded=0;orthogonalLoop=1;jettySize=auto;html=1;fontSize=12;" parent="1" source="HG3mwvZ6tWZtVFunkLje-20" target="HG3mwvZ6tWZtVFunkLje-22" edge="1">
          <mxGeometry relative="1" as="geometry" />
        </mxCell>
        <mxCell id="HG3mwvZ6tWZtVFunkLje-30" value="" style="edgeStyle=orthogonalEdgeStyle;rounded=0;orthogonalLoop=1;jettySize=auto;html=1;fontSize=12;" parent="1" source="HG3mwvZ6tWZtVFunkLje-20" target="HG3mwvZ6tWZtVFunkLje-29" edge="1">
          <mxGeometry relative="1" as="geometry" />
        </mxCell>
        <mxCell id="HG3mwvZ6tWZtVFunkLje-20" value="apakah sama dengan database?" style="rhombus;whiteSpace=wrap;html=1;" parent="1" vertex="1">
          <mxGeometry x="152.5" y="650" width="145" height="140" as="geometry" />
        </mxCell>
        <mxCell id="HG3mwvZ6tWZtVFunkLje-22" value="&lt;div&gt;output :&lt;/div&gt;&lt;div&gt;lampu merah menyala&lt;br&gt;&lt;/div&gt;" style="shape=parallelogram;perimeter=parallelogramPerimeter;whiteSpace=wrap;html=1;fixedSize=1;" parent="1" vertex="1">
          <mxGeometry x="370" y="685" width="160" height="70" as="geometry" />
        </mxCell>
        <mxCell id="HG3mwvZ6tWZtVFunkLje-28" value="" style="endArrow=classic;html=1;rounded=0;fontSize=12;" parent="1" source="HG3mwvZ6tWZtVFunkLje-22" edge="1">
          <mxGeometry width="50" height="50" relative="1" as="geometry">
            <mxPoint x="530" y="660" as="sourcePoint" />
            <mxPoint x="620" y="720" as="targetPoint" />
          </mxGeometry>
        </mxCell>
        <mxCell id="HG3mwvZ6tWZtVFunkLje-29" value="&lt;div&gt;output :&lt;/div&gt;&lt;div&gt;1. lampu hijau menyala&lt;/div&gt;&lt;div&gt;2. pintu terbuka&lt;br&gt;&lt;/div&gt;" style="shape=parallelogram;perimeter=parallelogramPerimeter;whiteSpace=wrap;html=1;fixedSize=1;" parent="1" vertex="1">
          <mxGeometry x="142.5" y="910" width="165" height="80" as="geometry" />
        </mxCell>
        <mxCell id="HG3mwvZ6tWZtVFunkLje-31" value="" style="endArrow=classic;html=1;rounded=0;fontSize=12;entryX=0.5;entryY=1;entryDx=0;entryDy=0;" parent="1" source="HG3mwvZ6tWZtVFunkLje-29" target="HG3mwvZ6tWZtVFunkLje-17" edge="1">
          <mxGeometry width="50" height="50" relative="1" as="geometry">
            <mxPoint x="260" y="890" as="sourcePoint" />
            <mxPoint x="310" y="840" as="targetPoint" />
            <Array as="points">
              <mxPoint x="683" y="950" />
            </Array>
          </mxGeometry>
        </mxCell>
        <mxCell id="HG3mwvZ6tWZtVFunkLje-32" value="ya" style="text;html=1;align=center;verticalAlign=middle;resizable=0;points=[];autosize=1;strokeColor=none;fillColor=none;fontSize=12;" parent="1" vertex="1">
          <mxGeometry x="225" y="570" width="30" height="20" as="geometry" />
        </mxCell>
        <mxCell id="HG3mwvZ6tWZtVFunkLje-33" value="tidak" style="text;html=1;align=center;verticalAlign=middle;resizable=0;points=[];autosize=1;strokeColor=none;fillColor=none;fontSize=12;" parent="1" vertex="1">
          <mxGeometry x="297.5" y="690" width="40" height="20" as="geometry" />
        </mxCell>
        <mxCell id="HG3mwvZ6tWZtVFunkLje-34" value="ya" style="text;html=1;align=center;verticalAlign=middle;resizable=0;points=[];autosize=1;strokeColor=none;fillColor=none;fontSize=12;" parent="1" vertex="1">
          <mxGeometry x="225" y="790" width="30" height="20" as="geometry" />
        </mxCell>
      </root>
    </mxGraphModel>
  </diagram>
</mxfile>
